<?xml version="1.0" encoding="utf-8"?>
<svg viewBox="0 0 500 500" xmlns="http://www.w3.org/2000/svg">
  <path d="M 196.7 0 L 303.35 0 C 439.6 0 500 60.449 500 196.647 L 500 303.345 C 500 439.543 439.6 499.992 303.35 499.992 L 196.7 499.992 C 60.45 499.992 0 439.543 0 303.345 L 0 196.647 C 0.2 60.449 60.65 0 196.7 0 Z" fill="#4DB378" transform="matrix(1, 0, 0, 1, 5.684341886080802e-14, 0)"/>
  <g transform="matrix(2.9631080627441406, 0, 0, 2.9631080627441406, 220.8960571289063, -1594.97021484375)" style="">
    <path d="M 67.072 561.997 C 63.422 566.247 55.222 574.697 44.822 584.897 C 40.772 588.847 37.272 592.647 37.022 593.297 C 36.772 593.947 36.572 595.397 36.522 596.547 L 36.472 598.647 L 35.972 596.747 C 35.122 593.547 36.472 590.997 42.172 585.097 C 46.872 580.147 47.372 579.347 47.122 576.647 C 46.922 574.047 45.072 571.597 45.072 573.847 C 45.072 574.397 44.822 575.447 44.522 576.247 C 43.972 577.647 43.922 577.647 43.372 575.097 C 42.672 572.297 41.172 569.347 40.172 568.997 C 39.772 568.897 39.572 569.447 39.522 570.747 C 39.522 571.797 39.322 573.047 39.122 573.597 C 38.822 574.347 38.672 574.147 38.172 572.597 C 37.422 569.997 34.922 566.097 33.572 565.397 C 32.522 564.847 32.472 564.847 32.822 567.747 L 33.172 570.647 L 32.222 569.047 C 30.772 566.447 29.172 564.897 26.922 563.847 C 23.272 562.197 22.822 562.497 24.572 565.547 C 26.672 569.297 27.422 571.747 28.572 578.297 C 29.272 582.447 29.872 584.597 30.822 585.947 C 31.522 586.997 32.072 587.997 32.072 588.147 C 32.072 588.297 30.872 588.397 29.422 588.397 C 25.772 588.397 21.772 589.647 20.822 591.097 C 20.222 591.997 20.072 593.447 20.172 596.947 C 20.222 599.547 20.072 602.397 19.872 603.347 L 19.472 605.047 L 21.722 603.797 C 23.672 602.697 24.372 602.547 26.622 602.847 C 29.172 603.147 29.222 603.197 29.822 605.247 C 30.172 606.397 31.022 608.347 31.772 609.547 L 33.022 611.747 L 30.972 612.047 C 29.122 612.297 27.972 611.847 18.922 607.347 C 13.472 604.597 8.922 602.397 8.822 602.497 C 8.422 602.947 -0.478 621.047 -0.328 621.147 C 0.122 621.547 33.222 637.947 33.322 637.797 C 33.722 637.347 42.622 619.247 42.472 619.147 C 42.372 619.097 41.572 618.647 40.722 618.197 C 39.822 617.747 39.072 617.197 39.072 616.947 C 39.072 616.497 43.472 617.747 44.372 618.497 C 44.672 618.697 45.022 620.697 45.172 622.847 C 45.422 626.897 46.672 629.947 48.372 630.597 C 49.022 630.847 49.122 630.497 48.822 627.997 L 48.522 625.147 L 49.472 627.197 C 51.222 630.897 56.622 634.247 55.872 631.147 C 55.722 630.447 55.422 629.297 55.272 628.597 C 54.972 627.497 55.272 627.647 57.422 629.797 C 60.222 632.597 63.372 633.897 67.272 633.897 L 69.822 633.897 L 67.072 631.547 C 62.472 627.597 56.122 621.347 52.822 617.497 C 49.972 614.197 46.072 607.797 46.072 606.447 C 46.072 606.147 47.222 606.497 48.622 607.197 C 51.422 608.697 56.622 609.297 59.522 608.547 L 61.172 608.097 L 57.322 605.647 L 53.472 603.147 L 59.122 602.897 C 62.372 602.697 65.372 602.297 66.072 601.947 C 67.522 601.147 69.572 599.397 69.572 598.897 C 69.572 598.697 67.972 598.347 66.022 598.197 C 62.122 597.797 62.072 597.397 65.772 596.397 C 68.472 595.647 72.572 592.247 72.572 590.697 C 72.572 589.897 72.222 589.847 69.222 590.147 C 65.872 590.497 65.822 590.497 67.072 589.597 C 69.172 588.147 71.122 586.247 72.622 584.197 C 74.272 581.947 74.572 580.597 73.222 581.297 C 72.722 581.547 71.422 581.947 70.372 582.097 L 68.422 582.497 L 70.072 580.597 C 70.972 579.547 72.122 577.797 72.622 576.647 C 73.572 574.497 74.472 569.747 73.722 570.697 C 73.072 571.497 68.472 574.897 68.022 574.897 C 67.772 574.897 68.172 574.097 68.822 573.097 C 70.372 570.847 71.572 566.897 71.572 564.197 C 71.572 561.497 71.022 558.397 70.572 558.397 C 70.372 558.397 68.822 560.047 67.072 561.997 Z" id="path82" style="fill: rgb(255, 255, 255);" fill="#4DB378" stroke="none"/>
    <path d="M -54.428 627.897 L -54.428 638.397 L -35.678 638.397 L -16.928 638.397 L -16.928 627.897 L -16.928 617.397 L -35.678 617.397 L -54.428 617.397 L -54.428 627.897 Z" id="path84" style="fill: rgb(255, 255, 255);" fill="#4DB378" stroke="none"/>
    <path d="M -54.428 652.397 L -54.428 662.897 L -45.678 662.897 L -36.928 662.897 L -36.928 652.397 L -36.928 641.897 L -45.678 641.897 L -54.428 641.897 L -54.428 652.397 Z" id="path108" style="fill: rgb(255, 255, 255);" fill="#4DB378" stroke="none"/>
    <path d="M -34.328 652.247 L -34.178 662.647 L -15.278 662.797 L 3.572 662.897 L 3.572 652.397 L 3.572 641.897 L -15.428 641.897 L -34.428 641.897 L -34.328 652.247 Z" id="path110" style="fill: rgb(255, 255, 255);" fill="#4DB378" stroke="none"/>
    <path d="M 6.072 652.397 L 6.072 662.897 L 14.822 662.897 L 23.572 662.897 L 23.572 652.397 L 23.572 641.897 L 14.822 641.897 L 6.072 641.897 L 6.072 652.397 Z" id="path112" style="fill: rgb(255, 255, 255);" fill="#4DB378" stroke="none"/>
    <path d="M -54.428 676.397 L -54.428 686.897 L -35.678 686.897 L -16.928 686.897 L -16.928 676.397 L -16.928 665.897 L -35.678 665.897 L -54.428 665.897 L -54.428 676.397 Z" id="path114" style="fill: rgb(255, 255, 255);" fill="#4DB378" stroke="none"/>
    <path d="M -14.428 676.397 L -14.428 686.897 L 4.572 686.897 L 23.572 686.897 L 23.572 676.397 L 23.572 665.897 L 4.572 665.897 L -14.428 665.897 L -14.428 676.397 Z" id="path116" style="fill: rgb(255, 255, 255);" fill="#4DB378" stroke="none"/>
  </g>
</svg>